<?xml version="1.0" encoding="UTF-8"?>
<svg xmlns="http://www.w3.org/2000/svg" viewBox="0 0 160 200" fill="none">
  <title>Daisy plasma silhouette</title>
  <path fill="#111"
    d="M100 14c-8 8-18 10-28 8 2 10 0 20-6 28-14-6-30 2-34 18-4 18 10 34 28 36l2 20c-10 8-12 22-4 32 8 10 22 10 30 2 6 14 20 24 36 20 16-4 26-20 22-36 12-2 22-14 20-26-2-14-16-22-28-18l-4-18c14-8 20-26 12-40-8-14-24-18-38-12-2-6-6-12-12-14zm-12 58c6 0 12 6 10 12-6 2-12-4-10-12zm24 2c2 8-4 14-10 12 2-6 6-12 10-12zM72 130c10 8 24 12 36 10 12 2 26-4 34-12-10 8-22 12-34 12s-24-4-36-10z"/>
</svg>
