<?xml version="1.0" encoding="UTF-8"?>
<svg xmlns="http://www.w3.org/2000/svg" viewBox="0 0 200 200" fill="none">
  <!-- Plasma-friendly Flock Yeah mark: single fill silhouette -->
  <title>Flock Yeah plasma mark</title>
  <path fill="#111"
    d="M100 18c-8 14-10 28-6 40-18-4-34 6-40 22-8 20 2 40 22 48-6 10-8 22-4 34 2 6 10 10 16 6 4 12 14 22 28 24 14-2 24-12 28-24 6 4 14 0 16-6 4-12 2-24-4-34 20-8 30-28 22-48-6-16-22-26-40-22 4-12 2-26-6-40-4 10-12 18-22 22-10-4-18-12-22-22zm-8 70c8 0 14 8 12 16-8 2-14-6-12-16zm28 0c2 10-4 18-12 16 2-8 8-16 12-16zM78 128c8 10 22 16 34 14 12 2 26-4 34-14-10 8-22 12-34 12s-24-4-34-12z"/>
</svg>
